<svg width="576" height="448" viewBox="0 0 576 448" fill="none" xmlns="http://www.w3.org/2000/svg">
<path d="M288 0C128.94 0 0 57.31 0 128V320C0 390.69 128.94 448 288 448C447.06 448 576 390.69 576 320V128C576 57.31 447.06 0 288 0ZM205.01 158.36C200.56 174.97 190.47 188.93 176.7 198.84C100.23 185.46 48 158.78 48 128C48 97.84 98.11 71.61 172.04 57.97L197.64 102.31C207.5 119.4 210.12 139.3 205.01 158.36V158.36ZM288 208C266.92 208 246.59 207 227.11 205.3C235.17 179.17 259.26 160 288 160C316.74 160 340.83 179.17 348.89 205.3C329.41 207 309.08 208 288 208ZM352 64C352 99.29 323.29 128 288 128C252.71 128 224 99.29 224 64V50.96C244.4 49.08 265.8 48 288 48C310.2 48 331.6 49.08 352 50.96V64ZM398.93 198.9C385.12 188.99 374.99 175 370.53 158.36C365.42 139.3 368.04 119.4 377.91 102.32L403.56 57.9C477.72 71.5 528 97.79 528 128C528 158.83 475.6 185.54 398.93 198.9Z" fill="#FCFCFC"/>
</svg>
