<svg id="Capa_1" enable-background="new 0 0 512 512" height="512" viewBox="0 0 512 512" width="512" xmlns="http://www.w3.org/2000/svg"><g><path d="m356.427 214.35-48.145-5.807c-16.64-1.286-34.255-1.979-52.494-1.979-18.089 0-35.565.682-52.085 1.948l-48.121 5.764c-50.757 8.579-84.345 23.485-84.345 40.438 0 26.593 82.626 51.24 184.551 51.24s184.551-24.647 184.551-51.24c0-16.906-33.398-31.774-83.912-40.364z" fill="#dbedff"/><g><path d="m137.58 254.496c0-17.936 19.097-33.859 48.624-43.888l-30.621 3.668c-50.757 8.579-84.345 23.485-84.345 40.438 0 20.717 50.151 40.252 120.504 47.873-32.662-10.895-54.162-29.056-54.162-48.091z" fill="#b5dcff"/></g><path d="m344.977 184.888c-3.665 5.117-9.426 8.246-15.697 8.778-7.216.613-14.159 4.295-18.703 10.818-7.196 10.329-5.594 24.677 3.7 33.168 10.917 9.975 27.801 8.549 36.928-2.795 4.622-5.745 6.332-12.888 5.324-19.648-.905-6.076 1.164-12.222 5.277-16.785l144.307-160.124c8.799-9.764 7.587-24.917-2.654-33.157-10.241-8.24-25.302-6.181-32.956 4.504z" fill="#ffe97b"/><path d="m167.023 184.888c3.665 5.117 9.426 8.246 15.697 8.778 7.216.613 14.159 4.295 18.703 10.818 7.196 10.329 5.594 24.677-3.7 33.168-10.917 9.975-27.801 8.549-36.928-2.795-4.622-5.745-6.332-12.888-5.324-19.648.905-6.076-1.164-12.222-5.277-16.785l-144.308-160.124c-8.799-9.764-7.586-24.917 2.655-33.156 10.241-8.24 25.302-6.181 32.956 4.504z" fill="#ffe97b"/><path d="m329.403 212.666c4.545-6.523 11.487-10.205 18.704-10.818 6.272-.533 12.032-3.661 15.698-8.778l125.525-175.24c4.217-5.887 10.684-9.149 17.353-9.52-.951-1.136-2.022-2.2-3.223-3.166-10.241-8.24-25.302-6.181-32.956 4.504l-125.526 175.24c-3.665 5.117-9.426 8.246-15.698 8.778-7.216.613-14.159 4.295-18.703 10.818-7.196 10.329-5.594 24.677 3.7 33.168 4.968 4.539 11.172 6.71 17.317 6.667-7.932-8.606-8.977-21.914-2.191-31.653z" fill="#f4dd45"/><path d="m176.243 227.649c-4.622-5.745-6.332-12.888-5.324-19.648.905-6.076-1.164-12.222-5.277-16.785l-144.308-160.125c-8.07-8.955-7.713-22.437.3-30.968-4.613.248-9.202 1.889-13.093 5.02-10.241 8.24-11.454 23.393-2.655 33.157l144.308 160.124c4.113 4.563 6.182 10.709 5.277 16.785-1.007 6.76.702 13.903 5.324 19.648 9.127 11.343 26.01 12.77 36.928 2.795.227-.208.428-.434.646-.649-8.187.756-16.585-2.468-22.126-9.354z" fill="#f4dd45"/><g><g><path d="m255.788 171.02c-4.266 0-7.724-3.458-7.724-7.724v-25.184c0-4.266 3.458-7.724 7.724-7.724s7.724 3.458 7.724 7.724v25.184c0 4.267-3.458 7.724-7.724 7.724z" fill="#7fb3fa"/></g></g><g><g><path d="m214.162 182.176c-2.67 0-5.266-1.385-6.696-3.863l-12.592-21.809c-2.133-3.694-.867-8.418 2.827-10.551 3.694-2.132 8.418-.868 10.551 2.827l12.592 21.809c2.133 3.694.867 8.418-2.827 10.551-1.217.703-2.545 1.036-3.855 1.036z" fill="#7fb3fa"/></g></g><g><g><path d="m297.415 182.176c-1.31 0-2.638-.334-3.855-1.036-3.694-2.133-4.96-6.857-2.827-10.551l12.592-21.809c2.133-3.695 6.856-4.959 10.551-2.827 3.694 2.133 4.96 6.857 2.827 10.551l-12.592 21.809c-1.431 2.479-4.027 3.863-6.696 3.863z" fill="#7fb3fa"/></g></g><path d="m255.788 336.023c95.36 0 174.723-18.871 184.551-43.08v-38.23c0 26.593-82.626 48.151-184.551 48.151s-184.551-21.558-184.551-48.151v33.159c0 26.593 82.626 48.151 184.551 48.151z" fill="#477b9e"/><path d="m131.489 290.304c-37.02-8.806-60.252-21.49-60.252-35.591v33.159c0 14.1 23.232 26.785 60.252 35.591z" fill="#365e7d"/><path d="m255.788 480.783c-101.925 0-184.551-21.557-184.551-48.15v31.131c0 26.593 82.626 48.15 184.551 48.15s184.551-21.557 184.551-48.15v-26.06c-9.828 24.208-89.191 43.079-184.551 43.079z" fill="#477b9e"/><path d="m131.489 468.223c-37.02-8.806-60.252-21.49-60.252-35.59v31.131c0 14.1 23.232 26.784 60.252 35.59z" fill="#365e7d"/><path d="m255.788 333.963c-101.925 0-184.551-21.558-184.551-48.151v148.88c0 26.593 82.626 48.15 184.551 48.15s184.551-21.557 184.551-48.15v-148.88c0 26.594-82.626 48.151-184.551 48.151z" fill="#f87c68"/><path d="m131.489 321.404c-37.02-8.806-60.252-21.49-60.252-35.591v148.88c0 14.1 23.232 26.784 60.252 35.59z" fill="#ec625e"/><g><g><path d="m255.788 490.568c-3.185 0-6.167-1.985-7.285-5.16l-53.151-150.91c-1.417-4.023.696-8.434 4.719-9.851 4.023-1.415 8.434.697 9.851 4.72l53.151 150.91c1.417 4.023-.696 8.434-4.719 9.851-.848.298-1.715.44-2.566.44z" fill="#fcc101"/></g></g><g><g><path d="m137.632 479.405c-3.227 0-6.237-2.039-7.321-5.267l-57.439-171.017c-1.358-4.044.819-8.423 4.863-9.78 4.042-1.364 8.423.818 9.781 4.863l57.439 171.017c1.358 4.044-.819 8.423-4.863 9.78-.815.274-1.645.404-2.46.404z" fill="#fcc101"/></g></g><g><g><path d="m373.948 479.405c-2.912 0-5.699-1.654-7.008-4.468l-65.004-139.747c-1.799-3.868-.122-8.462 3.746-10.261 3.868-1.797 8.461-.122 10.261 3.746l65.004 139.746c1.799 3.868.122 8.462-3.746 10.261-1.054.49-2.162.723-3.253.723z" fill="#fcc101"/></g></g><g><g><path d="m137.628 479.405c-1.091 0-2.198-.232-3.252-.722-3.868-1.799-5.545-6.393-3.746-10.261l65.004-139.746c1.799-3.868 6.394-5.543 10.261-3.746 3.868 1.799 5.545 6.393 3.746 10.261l-65.004 139.746c-1.31 2.813-4.098 4.468-7.009 4.468z" fill="#f4dd45"/></g></g><g><g><path d="m255.788 490.568c-.851 0-1.717-.142-2.566-.44-4.024-1.417-6.137-5.828-4.719-9.851l53.151-150.91c1.417-4.024 5.828-6.134 9.851-4.72 4.024 1.417 6.137 5.828 4.719 9.851l-53.151 150.91c-1.118 3.175-4.1 5.16-7.285 5.16z" fill="#f4dd45"/></g></g><g><g><path d="m373.944 479.405c-.816 0-1.644-.13-2.46-.404-4.044-1.358-6.221-5.737-4.863-9.78l57.439-171.017c1.358-4.044 5.739-6.222 9.781-4.863 4.044 1.358 6.221 5.737 4.863 9.78l-57.439 171.017c-1.084 3.228-4.094 5.267-7.321 5.267z" fill="#f4dd45"/></g></g></g></svg>